<svg version="1.1" xmlns="http://www.w3.org/2000/svg" xmlns:xlink="http://www.w3.org/1999/xlink" width="16" height="16" viewBox="0,0,256,256"><g fill="#ffffff" fill-rule="nonzero" stroke="none" stroke-width="1" stroke-linecap="butt" stroke-linejoin="miter" stroke-miterlimit="10" stroke-dasharray="" stroke-dashoffset="0" font-family="none" font-weight="none" font-size="none" text-anchor="none" style="mix-blend-mode: normal"><g transform="scale(16,16)"><path d="M16,8c0,-4.41828 -3.58172,-8 -8,-8c-4.41828,0 -8,3.58172 -8,8c0,4.41828 3.58172,8 8,8c4.41828,0 8,-3.58172 8,-8M8.5,11.5c0,0.27614 -0.22386,0.5 -0.5,0.5c-0.27614,0 -0.5,-0.22386 -0.5,-0.5v-5.793l-2.146,2.147c-0.19551,0.19551 -0.51249,0.19551 -0.708,0c-0.19551,-0.19551 -0.19551,-0.51249 0,-0.708l3,-3c0.0938,-0.09404 0.22117,-0.14689 0.354,-0.14689c0.13283,0 0.2602,0.05285 0.354,0.14689l3,3c0.19551,0.19551 0.19551,0.51249 0,0.708c-0.19551,0.19551 -0.51249,0.19551 -0.708,0l-2.146,-2.147z"></path></g></g></svg>