<svg version="1.1" xmlns="http://www.w3.org/2000/svg" xmlns:xlink="http://www.w3.org/1999/xlink" width="16" height="16" viewBox="0,0,256,256"><g fill="#ffffff" fill-rule="nonzero" stroke="none" stroke-width="1" stroke-linecap="butt" stroke-linejoin="miter" stroke-miterlimit="10" stroke-dasharray="" stroke-dashoffset="0" font-family="none" font-weight="none" font-size="none" text-anchor="none" style="mix-blend-mode: normal"><g transform="scale(16,16)"><path d="M11,6.5c0,-0.27614 0.22386,-0.5 0.5,-0.5h1c0.27614,0 0.5,0.22386 0.5,0.5v1c0,0.27614 -0.22386,0.5 -0.5,0.5h-1c-0.27614,0 -0.5,-0.22386 -0.5,-0.5zM8,6.5c0,-0.27614 0.22386,-0.5 0.5,-0.5h1c0.27614,0 0.5,0.22386 0.5,0.5v1c0,0.27614 -0.22386,0.5 -0.5,0.5h-1c-0.27614,0 -0.5,-0.22386 -0.5,-0.5zM3,9.5c0,-0.27614 0.22386,-0.5 0.5,-0.5h1c0.27614,0 0.5,0.22386 0.5,0.5v1c0,0.27614 -0.22386,0.5 -0.5,0.5h-1c-0.27614,0 -0.5,-0.22386 -0.5,-0.5zM6,9.5c0,-0.27614 0.22386,-0.5 0.5,-0.5h1c0.27614,0 0.5,0.22386 0.5,0.5v1c0,0.27614 -0.22386,0.5 -0.5,0.5h-1c-0.27614,0 -0.5,-0.22386 -0.5,-0.5z"></path><path d="M3.5,0c0.27614,0 0.5,0.22386 0.5,0.5v0.5h8v-0.5c0,-0.27614 0.22386,-0.5 0.5,-0.5c0.27614,0 0.5,0.22386 0.5,0.5v0.5h1c1.10457,0 2,0.89543 2,2v11c0,1.10457 -0.89543,2 -2,2h-12c-1.10457,0 -2,-0.89543 -2,-2v-11c0,-1.10457 0.89543,-2 2,-2h1v-0.5c0,-0.27614 0.22386,-0.5 0.5,-0.5M1,4v10c0,0.55228 0.44772,1 1,1h12c0.55228,0 1,-0.44772 1,-1v-10z"></path></g></g></svg>