<svg version="1.1" xmlns="http://www.w3.org/2000/svg" xmlns:xlink="http://www.w3.org/1999/xlink" width="16" height="16" viewBox="0,0,256,256"><g fill="#49ff95" fill-rule="nonzero" stroke="none" stroke-width="1" stroke-linecap="butt" stroke-linejoin="miter" stroke-miterlimit="10" stroke-dasharray="" stroke-dashoffset="0" font-family="none" font-weight="none" font-size="none" text-anchor="none" style="mix-blend-mode: normal"><g><g><g><g><g transform="translate(0,-16) scale(16,16)"><path d="M2,2c-1.10457,0 -2,0.89543 -2,2v8.01c0.0055,1.10066 0.89932,1.99001 2,1.99h5.5c0.27614,0 0.5,-0.22386 0.5,-0.5c0,-0.27614 -0.22386,-0.5 -0.5,-0.5h-5.5c-0.45258,0.00006 -0.84878,-0.30386 -0.966,-0.741l5.64,-3.471l1.326,0.795l7,-4.2v3.117c0,0.27614 0.22386,0.5 0.5,0.5c0.27614,0 0.5,-0.22386 0.5,-0.5v-4.5c0,-1.10457 -0.89543,-2 -2,-2zM5.708,8.208l-4.708,2.897v-5.722zM1,4.217v-0.217c0,-0.55228 0.44772,-1 1,-1h12c0.55228,0 1,0.44772 1,1v0.217l-7,4.2z"></path><path d="M14.247,14.269c1.01,0 1.587,-0.857 1.587,-2.025v-0.21c0,-1.604 -1.194,-3.034 -3.314,-3.034h-0.035c-2.065,0 -3.485,1.36 -3.485,3.432v0.214c0,2.174 1.438,3.354 3.358,3.354h0.044c0.594,0 1.018,-0.074 1.237,-0.175v-0.73c-0.245,0.11 -0.673,0.18 -1.18,0.18h-0.044c-1.334,0 -2.571,-0.788 -2.571,-2.655v-0.157c0,-1.657 1.058,-2.724 2.64,-2.724h0.04c1.535,0 2.484,1.05 2.484,2.326v0.118c0,0.975 -0.324,1.39 -0.639,1.39c-0.232,0 -0.41,-0.148 -0.41,-0.42v-2.19h-0.906v0.569h-0.03c-0.084,-0.298 -0.368,-0.63 -0.954,-0.63c-0.778,0 -1.259,0.555 -1.259,1.4v0.528c0,0.892 0.49,1.434 1.26,1.434c0.471,0 0.896,-0.227 1.014,-0.643h0.043c0.118,0.42 0.617,0.648 1.12,0.648M11.794,12.681v-0.227c0,-0.546 0.227,-0.791 0.573,-0.791c0.297,0 0.572,0.192 0.572,0.708v0.367c0,0.573 -0.253,0.744 -0.564,0.744c-0.354,0 -0.581,-0.215 -0.581,-0.8z"></path></g></g></g></g></g></g></svg>