<svg version="1.1" xmlns="http://www.w3.org/2000/svg" xmlns:xlink="http://www.w3.org/1999/xlink" width="16" height="16" viewBox="0,0,256,256"><g fill="#49ff95" fill-rule="nonzero" stroke="none" stroke-width="1" stroke-linecap="butt" stroke-linejoin="miter" stroke-miterlimit="10" stroke-dasharray="" stroke-dashoffset="0" font-family="none" font-weight="none" font-size="none" text-anchor="none" style="mix-blend-mode: normal"><g><g><g transform="scale(16,16)"><path d="M6.646,5.646c0.19551,-0.19551 0.51249,-0.19551 0.708,0c0.19551,0.19551 0.19551,0.51249 0,0.708l-1.647,1.646l1.647,1.646c0.19551,0.19551 0.19551,0.51249 0,0.708c-0.19551,0.19551 -0.51249,0.19551 -0.708,0l-2,-2c-0.09404,-0.0938 -0.14689,-0.22117 -0.14689,-0.354c0,-0.13283 0.05285,-0.2602 0.14689,-0.354zM9.354,5.646c-0.19551,-0.19551 -0.51249,-0.19551 -0.708,0c-0.19551,0.19551 -0.19551,0.51249 0,0.708l1.647,1.646l-1.647,1.646c-0.19551,0.19551 -0.19551,0.51249 0,0.708c0.19551,0.19551 0.51249,0.19551 0.708,0l2,-2c0.09404,-0.0938 0.14689,-0.22117 0.14689,-0.354c0,-0.13283 -0.05285,-0.2602 -0.14689,-0.354z"></path><path d="M2,2c0,-1.10457 0.89543,-2 2,-2h8c1.10457,0 2,0.89543 2,2v12c0,1.10457 -0.89543,2 -2,2h-8c-1.10457,0 -2,-0.89543 -2,-2zM12,1h-8c-0.55228,0 -1,0.44772 -1,1v12c0,0.55228 0.44772,1 1,1h8c0.55228,0 1,-0.44772 1,-1v-12c0,-0.55228 -0.44772,-1 -1,-1"></path></g></g></g></g></svg>