<svg version="1.1" xmlns="http://www.w3.org/2000/svg" xmlns:xlink="http://www.w3.org/1999/xlink" width="16" height="16" viewBox="0,0,256,256"><g fill="#49ff95" fill-rule="nonzero" stroke="none" stroke-width="1" stroke-linecap="butt" stroke-linejoin="miter" stroke-miterlimit="10" stroke-dasharray="" stroke-dashoffset="0" font-family="none" font-weight="none" font-size="none" text-anchor="none" style="mix-blend-mode: normal"><g><g><g><g><g transform="scale(16,16)"><path d="M12.166,8.94c-0.524,1.062 -1.234,2.12 -1.96,3.07c-0.68945,0.89501 -1.42581,1.75288 -2.206,2.57c-0.78019,-0.81712 -1.51655,-1.67499 -2.206,-2.57c-0.726,-0.95 -1.436,-2.008 -1.96,-3.07c-0.53,-1.073 -0.834,-2.078 -0.834,-2.94c0,-2.76142 2.23858,-5 5,-5c2.76142,0 5,2.23858 5,5c0,0.862 -0.305,1.867 -0.834,2.94M8,16c0,0 6,-5.686 6,-10c0,-3.31371 -2.68629,-6 -6,-6c-3.31371,0 -6,2.68629 -6,6c0,4.314 6,10 6,10"></path><path d="M8,8c-1.10457,0 -2,-0.89543 -2,-2c0,-1.10457 0.89543,-2 2,-2c1.10457,0 2,0.89543 2,2c0,1.10457 -0.89543,2 -2,2M8,9c1.65685,0 3,-1.34315 3,-3c0,-1.65685 -1.34315,-3 -3,-3c-1.65685,0 -3,1.34315 -3,3c0,1.65685 1.34315,3 3,3"></path></g></g></g></g></g></g></svg>