<svg version="1.1" xmlns="http://www.w3.org/2000/svg" xmlns:xlink="http://www.w3.org/1999/xlink" width="16" height="16" viewBox="0,0,256,256"><g fill="#49ff95" fill-rule="nonzero" stroke="none" stroke-width="1" stroke-linecap="butt" stroke-linejoin="miter" stroke-miterlimit="10" stroke-dasharray="" stroke-dashoffset="0" font-family="none" font-weight="none" font-size="none" text-anchor="none" style="mix-blend-mode: normal"><g><g><g><g><g transform="scale(16,16)"><path d="M8,8c1.65685,0 3,-1.34315 3,-3c0,-1.65685 -1.34315,-3 -3,-3c-1.65685,0 -3,1.34315 -3,3c0,1.65685 1.34315,3 3,3M10,5c0,1.10457 -0.89543,2 -2,2c-1.10457,0 -2,-0.89543 -2,-2c0,-1.10457 0.89543,-2 2,-2c1.10457,0 2,0.89543 2,2M14,13c0,1 -1,1 -1,1h-10c0,0 -1,0 -1,-1c0,-1 1,-4 6,-4c5,0 6,3 6,4M13,12.996c-0.001,-0.246 -0.154,-0.986 -0.832,-1.664c-0.652,-0.652 -1.879,-1.332 -4.168,-1.332c-2.289,0 -3.516,0.68 -4.168,1.332c-0.678,0.678 -0.83,1.418 -0.832,1.664z"></path></g></g></g></g></g></g></svg>