<svg version="1.1" xmlns="http://www.w3.org/2000/svg" xmlns:xlink="http://www.w3.org/1999/xlink" width="16" height="16" viewBox="0,0,256,256"><g fill="#ffffff" fill-rule="nonzero" stroke="none" stroke-width="1" stroke-linecap="butt" stroke-linejoin="miter" stroke-miterlimit="10" stroke-dasharray="" stroke-dashoffset="0" font-family="none" font-weight="none" font-size="none" text-anchor="none" style="mix-blend-mode: normal"><g transform="translate(0,-0.00001) scale(16,16)"><path d="M7.646,9.354l-3.792,3.792c-0.14325,0.14289 -0.18626,0.35802 -0.10897,0.545c0.07729,0.18698 0.25965,0.30896 0.46197,0.309h7.586c0.20251,0.00036 0.38524,-0.12146 0.46278,-0.30854c0.07755,-0.18707 0.03459,-0.40245 -0.10878,-0.54546l-3.793,-3.792c-0.0938,-0.09404 -0.22117,-0.14689 -0.354,-0.14689c-0.13283,0 -0.2602,0.05285 -0.354,0.14689"></path><path d="M11.414,11h3.086c0.27614,0 0.5,-0.22386 0.5,-0.5v-7c0,-0.27614 -0.22386,-0.5 -0.5,-0.5h-13c-0.27614,0 -0.5,0.22386 -0.5,0.5v7c0,0.27614 0.22386,0.5 0.5,0.5h3.086l-1,1h-2.086c-0.82843,0 -1.5,-0.67157 -1.5,-1.5v-7c0,-0.82843 0.67157,-1.5 1.5,-1.5h13c0.82843,0 1.5,0.67157 1.5,1.5v7c0,0.82843 -0.67157,1.5 -1.5,1.5h-2.086z"></path></g></g></svg>