<svg version="1.1" xmlns="http://www.w3.org/2000/svg" xmlns:xlink="http://www.w3.org/1999/xlink" width="16" height="16" viewBox="0,0,256,256"><g fill="#ffffff" fill-rule="nonzero" stroke="none" stroke-width="1" stroke-linecap="butt" stroke-linejoin="miter" stroke-miterlimit="10" stroke-dasharray="" stroke-dashoffset="0" font-family="none" font-weight="none" font-size="none" text-anchor="none" style="mix-blend-mode: normal"><g transform="scale(16,16)"><path d="M14,1c0.55228,0 1,0.44772 1,1v12c0,0.55228 -0.44772,1 -1,1h-12c-0.55228,0 -1,-0.44772 -1,-1v-12c0,-0.55228 0.44772,-1 1,-1zM2,0c-1.10457,0 -2,0.89543 -2,2v12c0,1.10457 0.89543,2 2,2h12c1.10457,0 2,-0.89543 2,-2v-12c0,-1.10457 -0.89543,-2 -2,-2z"></path><path d="M6.854,4.646c0.09404,0.0938 0.14689,0.22117 0.14689,0.354c0,0.13283 -0.05285,0.2602 -0.14689,0.354l-2.647,2.646l2.647,2.646c0.19551,0.19551 0.19551,0.51249 0,0.708c-0.19551,0.19551 -0.51249,0.19551 -0.708,0l-3,-3c-0.09404,-0.0938 -0.14689,-0.22117 -0.14689,-0.354c0,-0.13283 0.05285,-0.2602 0.14689,-0.354l3,-3c0.0938,-0.09404 0.22117,-0.14689 0.354,-0.14689c0.13283,0 0.2602,0.05285 0.354,0.14689M9.146,4.646c-0.09404,0.0938 -0.14689,0.22117 -0.14689,0.354c0,0.13283 0.05285,0.2602 0.14689,0.354l2.647,2.646l-2.647,2.646c-0.19551,0.19551 -0.19551,0.51249 0,0.708c0.19551,0.19551 0.51249,0.19551 0.708,0l3,-3c0.09404,-0.0938 0.14689,-0.22117 0.14689,-0.354c0,-0.13283 -0.05285,-0.2602 -0.14689,-0.354l-3,-3c-0.0938,-0.09404 -0.22117,-0.14689 -0.354,-0.14689c-0.13283,0 -0.2602,0.05285 -0.354,0.14689"></path></g></g></svg>