<svg version="1.1" xmlns="http://www.w3.org/2000/svg" xmlns:xlink="http://www.w3.org/1999/xlink" width="16" height="16" viewBox="0,0,256,256"><g fill="#49ff95" fill-rule="nonzero" stroke="none" stroke-width="1" stroke-linecap="butt" stroke-linejoin="miter" stroke-miterlimit="10" stroke-dasharray="" stroke-dashoffset="0" font-family="none" font-weight="none" font-size="none" text-anchor="none" style="mix-blend-mode: normal"><g transform="translate(0,0)"><g><g transform="translate(0.57598,0.00044) scale(16,16)"><path d="M13.601,2.326c-1.48148,-1.49584 -3.50171,-2.33391 -5.607,-2.326c-4.367,0 -7.926,3.558 -7.93,7.926c0,1.399 0.366,2.76 1.057,3.965l-1.121,4.109l4.204,-1.102c1.16249,0.63423 2.46575,0.96607 3.79,0.965h0.004c4.368,0 7.926,-3.558 7.93,-7.93c0.0018,-2.10447 -0.83615,-4.12268 -2.328,-5.607zM7.994,14.521c-1.18082,-0.00093 -2.33978,-0.31864 -3.356,-0.92l-0.24,-0.144l-2.494,0.654l0.666,-2.433l-0.156,-0.251c-0.66019,-1.04967 -1.00935,-2.26497 -1.007,-3.505c0,-3.626 2.957,-6.584 6.591,-6.584c1.74861,-0.00314 3.42611,0.69198 4.66,1.931c1.23792,1.23438 1.93193,2.91182 1.928,4.66c-0.004,3.639 -2.961,6.592 -6.592,6.592M11.609,9.587c-0.197,-0.099 -1.17,-0.578 -1.353,-0.646c-0.182,-0.065 -0.315,-0.099 -0.445,0.099c-0.133,0.197 -0.513,0.646 -0.627,0.775c-0.114,0.133 -0.232,0.148 -0.43,0.05c-0.197,-0.1 -0.836,-0.308 -1.592,-0.985c-0.59,-0.525 -0.985,-1.175 -1.103,-1.372c-0.114,-0.198 -0.011,-0.304 0.088,-0.403c0.087,-0.088 0.197,-0.232 0.296,-0.346c0.1,-0.114 0.133,-0.198 0.198,-0.33c0.065,-0.134 0.034,-0.248 -0.015,-0.347c-0.05,-0.099 -0.445,-1.076 -0.612,-1.47c-0.16,-0.389 -0.323,-0.335 -0.445,-0.34c-0.114,-0.007 -0.247,-0.007 -0.38,-0.007c-0.20301,0.00517 -0.3947,0.09467 -0.529,0.247c-0.182,0.198 -0.691,0.677 -0.691,1.654c0,0.977 0.71,1.916 0.81,2.049c0.098,0.133 1.394,2.132 3.383,2.992c0.47,0.205 0.84,0.326 1.129,0.418c0.475,0.152 0.904,0.129 1.246,0.08c0.38,-0.058 1.171,-0.48 1.338,-0.943c0.164,-0.464 0.164,-0.86 0.114,-0.943c-0.049,-0.084 -0.182,-0.133 -0.38,-0.232"></path></g></g></g></g></svg>